<mxfile host="app.diagrams.net" modified="2020-09-14T07:15:57.827Z" agent="5.0 (Windows NT 10.0; Win64; x64) AppleWebKit/537.36 (KHTML, like Gecko) Chrome/85.0.4183.102 Safari/537.36" etag="h9DhtXXTVFpPrLVVboXQ" version="13.6.10" type="github">
  <diagram name="Page-1" id="4bd5d27a-524c-7e24-5d5f-89a86ee4fca1">
    <mxGraphModel dx="1744" dy="1586" grid="1" gridSize="10" guides="1" tooltips="1" connect="1" arrows="1" fold="1" page="1" pageScale="1" pageWidth="1100" pageHeight="850" background="#ffffff" math="0" shadow="0">
      <root>
        <mxCell id="0" />
        <mxCell id="1" parent="0" />
        <mxCell id="MjTKoMQRRMAkkwBpksA8-139" style="edgeStyle=orthogonalEdgeStyle;rounded=0;orthogonalLoop=1;jettySize=auto;html=1;exitX=0.5;exitY=1;exitDx=0;exitDy=0;fontSize=40;fontColor=#33FF33;" edge="1" parent="1" source="MjTKoMQRRMAkkwBpksA8-133" target="MjTKoMQRRMAkkwBpksA8-1">
          <mxGeometry relative="1" as="geometry" />
        </mxCell>
        <mxCell id="MjTKoMQRRMAkkwBpksA8-133" value="展厅" style="rounded=0;whiteSpace=wrap;html=1;fillColor=#fff2cc;strokeColor=#d6b656;fontSize=40;fontColor=#007FFF;" vertex="1" parent="1">
          <mxGeometry x="1290" y="60" width="1080" height="300" as="geometry" />
        </mxCell>
        <mxCell id="MjTKoMQRRMAkkwBpksA8-1" value="" style="verticalLabelPosition=bottom;html=1;verticalAlign=top;align=center;shape=mxgraph.floorplan.room;fillColor=#000000;" vertex="1" parent="1">
          <mxGeometry x="1280" y="60" width="1100" height="1500" as="geometry" />
        </mxCell>
        <mxCell id="MjTKoMQRRMAkkwBpksA8-2" value="" style="verticalLabelPosition=bottom;html=1;verticalAlign=top;align=center;shape=mxgraph.floorplan.room;fillColor=#000000;" vertex="1" parent="1">
          <mxGeometry x="2370" y="60" width="1100" height="1500" as="geometry" />
        </mxCell>
        <mxCell id="MjTKoMQRRMAkkwBpksA8-3" value="" style="verticalLabelPosition=bottom;html=1;verticalAlign=top;align=center;shape=mxgraph.floorplan.wall;fillColor=#000000;" vertex="1" parent="1">
          <mxGeometry x="1290" y="360" width="360" height="10" as="geometry" />
        </mxCell>
        <mxCell id="MjTKoMQRRMAkkwBpksA8-4" value="" style="verticalLabelPosition=bottom;html=1;verticalAlign=top;align=center;shape=mxgraph.floorplan.wall;fillColor=#000000;direction=south;" vertex="1" parent="1">
          <mxGeometry x="1645" y="360" width="10" height="400" as="geometry" />
        </mxCell>
        <mxCell id="MjTKoMQRRMAkkwBpksA8-5" value="" style="verticalLabelPosition=bottom;html=1;verticalAlign=top;align=center;shape=mxgraph.floorplan.wall;fillColor=#000000;" vertex="1" parent="1">
          <mxGeometry x="1290" y="1108" width="360" height="17" as="geometry" />
        </mxCell>
        <mxCell id="MjTKoMQRRMAkkwBpksA8-7" value="" style="verticalLabelPosition=bottom;html=1;verticalAlign=top;align=center;shape=mxgraph.floorplan.wall;fillColor=#000000;" vertex="1" parent="1">
          <mxGeometry x="1280" y="850" width="370" height="10" as="geometry" />
        </mxCell>
        <mxCell id="MjTKoMQRRMAkkwBpksA8-8" value="" style="verticalLabelPosition=bottom;html=1;verticalAlign=top;align=center;shape=mxgraph.floorplan.wall;fillColor=#000000;direction=south;" vertex="1" parent="1">
          <mxGeometry x="1645" y="940" width="10" height="180" as="geometry" />
        </mxCell>
        <mxCell id="MjTKoMQRRMAkkwBpksA8-9" value="" style="verticalLabelPosition=bottom;html=1;verticalAlign=top;align=center;shape=mxgraph.floorplan.doorRight;aspect=fixed;" vertex="1" parent="1">
          <mxGeometry x="1570" y="860" width="80" height="85" as="geometry" />
        </mxCell>
        <mxCell id="MjTKoMQRRMAkkwBpksA8-11" value="" style="verticalLabelPosition=bottom;html=1;verticalAlign=top;align=center;shape=mxgraph.floorplan.doorLeft;aspect=fixed;rotation=-180;" vertex="1" parent="1">
          <mxGeometry x="1570" y="760" width="80" height="85" as="geometry" />
        </mxCell>
        <mxCell id="MjTKoMQRRMAkkwBpksA8-12" value="" style="verticalLabelPosition=bottom;html=1;verticalAlign=top;align=center;shape=mxgraph.floorplan.chair;shadow=0;" vertex="1" parent="1">
          <mxGeometry x="1415" y="910" width="40" height="52" as="geometry" />
        </mxCell>
        <mxCell id="MjTKoMQRRMAkkwBpksA8-13" value="" style="verticalLabelPosition=bottom;html=1;verticalAlign=top;align=center;shape=mxgraph.floorplan.chair;shadow=0;direction=west;" vertex="1" parent="1">
          <mxGeometry x="1415" y="998" width="40" height="52" as="geometry" />
        </mxCell>
        <mxCell id="MjTKoMQRRMAkkwBpksA8-14" value="" style="verticalLabelPosition=bottom;html=1;verticalAlign=top;align=center;shape=mxgraph.floorplan.chair;shadow=0;direction=north;" vertex="1" parent="1">
          <mxGeometry x="1365" y="960" width="52" height="40" as="geometry" />
        </mxCell>
        <mxCell id="MjTKoMQRRMAkkwBpksA8-15" value="" style="verticalLabelPosition=bottom;html=1;verticalAlign=top;align=center;shape=mxgraph.floorplan.chair;shadow=0;direction=south" vertex="1" parent="1">
          <mxGeometry x="1513" y="960" width="52" height="40" as="geometry" />
        </mxCell>
        <mxCell id="MjTKoMQRRMAkkwBpksA8-16" value="" style="verticalLabelPosition=bottom;html=1;verticalAlign=top;align=center;shape=mxgraph.floorplan.chair;shadow=0;" vertex="1" parent="1">
          <mxGeometry x="1475" y="910" width="40" height="50" as="geometry" />
        </mxCell>
        <mxCell id="MjTKoMQRRMAkkwBpksA8-17" value="" style="verticalLabelPosition=bottom;html=1;verticalAlign=top;align=center;shape=mxgraph.floorplan.chair;shadow=0;direction=west;" vertex="1" parent="1">
          <mxGeometry x="1475" y="998" width="40" height="52" as="geometry" />
        </mxCell>
        <mxCell id="MjTKoMQRRMAkkwBpksA8-18" value="" style="shape=rect;shadow=0;" vertex="1" parent="1">
          <mxGeometry x="1385" y="930" width="160" height="100" as="geometry" />
        </mxCell>
        <mxCell id="MjTKoMQRRMAkkwBpksA8-28" value="" style="edgeStyle=orthogonalEdgeStyle;rounded=0;orthogonalLoop=1;jettySize=auto;html=1;" edge="1" parent="1" source="MjTKoMQRRMAkkwBpksA8-23">
          <mxGeometry relative="1" as="geometry">
            <mxPoint x="1570" y="523" as="targetPoint" />
          </mxGeometry>
        </mxCell>
        <mxCell id="MjTKoMQRRMAkkwBpksA8-19" value="q" style="verticalLabelPosition=bottom;html=1;verticalAlign=top;align=center;shape=mxgraph.floorplan.office_chair;shadow=0;rotation=90;" vertex="1" parent="1">
          <mxGeometry x="1550" y="400" width="40" height="43" as="geometry" />
        </mxCell>
        <mxCell id="MjTKoMQRRMAkkwBpksA8-20" value="" style="verticalLabelPosition=bottom;html=1;verticalAlign=top;align=center;shape=mxgraph.floorplan.office_chair;shadow=0;direction=west;rotation=90;" vertex="1" parent="1">
          <mxGeometry x="1340" y="405" width="40" height="43" as="geometry" />
        </mxCell>
        <mxCell id="MjTKoMQRRMAkkwBpksA8-22" value="" style="verticalLabelPosition=bottom;html=1;verticalAlign=top;align=center;shape=mxgraph.floorplan.office_chair;shadow=0;direction=south;rotation=90;" vertex="1" parent="1">
          <mxGeometry x="1438.5" y="610" width="43" height="40" as="geometry" />
        </mxCell>
        <mxCell id="MjTKoMQRRMAkkwBpksA8-24" value="" style="verticalLabelPosition=bottom;html=1;verticalAlign=top;align=center;shape=mxgraph.floorplan.office_chair;shadow=0;direction=west;rotation=90;" vertex="1" parent="1">
          <mxGeometry x="1340" y="502" width="40" height="43" as="geometry" />
        </mxCell>
        <mxCell id="MjTKoMQRRMAkkwBpksA8-25" value="q" style="shape=rect;shadow=0;rotation=90;" vertex="1" parent="1">
          <mxGeometry x="1345" y="405" width="230" height="160" as="geometry" />
        </mxCell>
        <mxCell id="MjTKoMQRRMAkkwBpksA8-23" value="" style="verticalLabelPosition=bottom;html=1;verticalAlign=top;align=center;shape=mxgraph.floorplan.office_chair;shadow=0;rotation=90;" vertex="1" parent="1">
          <mxGeometry x="1550" y="502" width="40" height="43" as="geometry" />
        </mxCell>
        <mxCell id="MjTKoMQRRMAkkwBpksA8-29" value="" style="edgeStyle=orthogonalEdgeStyle;rounded=0;orthogonalLoop=1;jettySize=auto;html=1;" edge="1" parent="1" source="MjTKoMQRRMAkkwBpksA8-19" target="MjTKoMQRRMAkkwBpksA8-23">
          <mxGeometry relative="1" as="geometry">
            <mxPoint x="1570" y="522.9999999999998" as="targetPoint" />
            <mxPoint x="1570" y="441.5" as="sourcePoint" />
          </mxGeometry>
        </mxCell>
        <mxCell id="MjTKoMQRRMAkkwBpksA8-30" value="" style="verticalLabelPosition=bottom;html=1;verticalAlign=top;align=center;shape=mxgraph.floorplan.flat_tv;" vertex="1" parent="1">
          <mxGeometry x="1700" y="80" width="70" height="10" as="geometry" />
        </mxCell>
        <mxCell id="MjTKoMQRRMAkkwBpksA8-62" value="" style="group" vertex="1" connectable="0" parent="1">
          <mxGeometry x="1810" y="870" width="560" height="155" as="geometry" />
        </mxCell>
        <mxCell id="MjTKoMQRRMAkkwBpksA8-63" value="" style="verticalLabelPosition=bottom;html=1;verticalAlign=top;align=center;shape=mxgraph.floorplan.office_chair;shadow=0;" vertex="1" parent="MjTKoMQRRMAkkwBpksA8-62">
          <mxGeometry x="440" y="5" width="40" height="43" as="geometry" />
        </mxCell>
        <mxCell id="MjTKoMQRRMAkkwBpksA8-64" value="" style="verticalLabelPosition=bottom;html=1;verticalAlign=top;align=center;shape=mxgraph.floorplan.office_chair;shadow=0;direction=west;" vertex="1" parent="MjTKoMQRRMAkkwBpksA8-62">
          <mxGeometry x="440" y="70" width="40" height="85" as="geometry" />
        </mxCell>
        <mxCell id="MjTKoMQRRMAkkwBpksA8-65" value="" style="verticalLabelPosition=bottom;html=1;verticalAlign=top;align=center;shape=mxgraph.floorplan.office_chair;shadow=0;" vertex="1" parent="MjTKoMQRRMAkkwBpksA8-62">
          <mxGeometry x="240" width="40" height="43" as="geometry" />
        </mxCell>
        <mxCell id="MjTKoMQRRMAkkwBpksA8-66" value="" style="verticalLabelPosition=bottom;html=1;verticalAlign=top;align=center;shape=mxgraph.floorplan.office_chair;shadow=0;direction=west;" vertex="1" parent="MjTKoMQRRMAkkwBpksA8-62">
          <mxGeometry x="240" y="65" width="40" height="85" as="geometry" />
        </mxCell>
        <mxCell id="MjTKoMQRRMAkkwBpksA8-67" value="" style="verticalLabelPosition=bottom;html=1;verticalAlign=top;align=center;shape=mxgraph.floorplan.office_chair;shadow=0;" vertex="1" parent="MjTKoMQRRMAkkwBpksA8-62">
          <mxGeometry x="100" width="40" height="43" as="geometry" />
        </mxCell>
        <mxCell id="MjTKoMQRRMAkkwBpksA8-68" value="" style="verticalLabelPosition=bottom;html=1;verticalAlign=top;align=center;shape=mxgraph.floorplan.office_chair;shadow=0;direction=west;" vertex="1" parent="MjTKoMQRRMAkkwBpksA8-62">
          <mxGeometry x="100" y="66" width="40" height="85" as="geometry" />
        </mxCell>
        <mxCell id="MjTKoMQRRMAkkwBpksA8-69" value="" style="shape=rect;shadow=0;" vertex="1" parent="MjTKoMQRRMAkkwBpksA8-62">
          <mxGeometry y="25" width="560" height="100" as="geometry" />
        </mxCell>
        <mxCell id="MjTKoMQRRMAkkwBpksA8-70" value="" style="verticalLabelPosition=bottom;html=1;verticalAlign=top;align=center;shape=mxgraph.floorplan.wall;fillColor=#000000;" vertex="1" parent="1">
          <mxGeometry x="1830" y="1115" width="540" height="10" as="geometry" />
        </mxCell>
        <mxCell id="MjTKoMQRRMAkkwBpksA8-71" value="" style="verticalLabelPosition=bottom;html=1;verticalAlign=top;align=center;shape=mxgraph.floorplan.wall;fillColor=#000000;rotation=90;" vertex="1" parent="1">
          <mxGeometry x="2350" y="830" width="40" height="65" as="geometry" />
        </mxCell>
        <mxCell id="MjTKoMQRRMAkkwBpksA8-72" value="" style="verticalLabelPosition=bottom;html=1;verticalAlign=top;align=center;shape=mxgraph.floorplan.wall;fillColor=#000000;rotation=90;" vertex="1" parent="1">
          <mxGeometry x="2340" y="830" width="40" height="65" as="geometry" />
        </mxCell>
        <mxCell id="MjTKoMQRRMAkkwBpksA8-73" value="" style="verticalLabelPosition=bottom;html=1;verticalAlign=top;align=center;shape=mxgraph.floorplan.wall;fillColor=#000000;rotation=90;" vertex="1" parent="1">
          <mxGeometry x="2360" y="830" width="40" height="65" as="geometry" />
        </mxCell>
        <mxCell id="MjTKoMQRRMAkkwBpksA8-74" value="" style="verticalLabelPosition=bottom;html=1;verticalAlign=top;align=center;shape=mxgraph.floorplan.wall;fillColor=#000000;rotation=90;" vertex="1" parent="1">
          <mxGeometry x="2370" y="830" width="40" height="65" as="geometry" />
        </mxCell>
        <mxCell id="MjTKoMQRRMAkkwBpksA8-75" value="" style="verticalLabelPosition=bottom;html=1;verticalAlign=top;align=center;shape=mxgraph.floorplan.office_chair;shadow=0;" vertex="1" parent="1">
          <mxGeometry x="2270" y="1209" width="40" height="43" as="geometry" />
        </mxCell>
        <mxCell id="MjTKoMQRRMAkkwBpksA8-76" value="" style="verticalLabelPosition=bottom;html=1;verticalAlign=top;align=center;shape=mxgraph.floorplan.office_chair;shadow=0;direction=west;" vertex="1" parent="1">
          <mxGeometry x="2270" y="1252" width="40" height="85" as="geometry" />
        </mxCell>
        <mxCell id="MjTKoMQRRMAkkwBpksA8-77" value="" style="verticalLabelPosition=bottom;html=1;verticalAlign=top;align=center;shape=mxgraph.floorplan.office_chair;shadow=0;" vertex="1" parent="1">
          <mxGeometry x="2010" y="1204" width="40" height="43" as="geometry" />
        </mxCell>
        <mxCell id="MjTKoMQRRMAkkwBpksA8-78" value="" style="verticalLabelPosition=bottom;html=1;verticalAlign=top;align=center;shape=mxgraph.floorplan.office_chair;shadow=0;direction=west;" vertex="1" parent="1">
          <mxGeometry x="2010" y="1252" width="40" height="85" as="geometry" />
        </mxCell>
        <mxCell id="MjTKoMQRRMAkkwBpksA8-82" value="" style="verticalLabelPosition=bottom;html=1;verticalAlign=top;align=center;shape=mxgraph.floorplan.office_chair;shadow=0;" vertex="1" parent="1">
          <mxGeometry x="2730" y="1290" width="40" height="43" as="geometry" />
        </mxCell>
        <mxCell id="MjTKoMQRRMAkkwBpksA8-83" value="" style="verticalLabelPosition=bottom;html=1;verticalAlign=top;align=center;shape=mxgraph.floorplan.office_chair;shadow=0;direction=west;" vertex="1" parent="1">
          <mxGeometry x="2730" y="1387" width="40" height="43" as="geometry" />
        </mxCell>
        <mxCell id="MjTKoMQRRMAkkwBpksA8-84" value="" style="verticalLabelPosition=bottom;html=1;verticalAlign=top;align=center;shape=mxgraph.floorplan.office_chair;shadow=0;direction=north;" vertex="1" parent="1">
          <mxGeometry x="2680" y="1340" width="43" height="40" as="geometry" />
        </mxCell>
        <mxCell id="MjTKoMQRRMAkkwBpksA8-85" value="" style="verticalLabelPosition=bottom;html=1;verticalAlign=top;align=center;shape=mxgraph.floorplan.office_chair;shadow=0;direction=south" vertex="1" parent="1">
          <mxGeometry x="3197" y="1340" width="43" height="40" as="geometry" />
        </mxCell>
        <mxCell id="MjTKoMQRRMAkkwBpksA8-86" value="" style="verticalLabelPosition=bottom;html=1;verticalAlign=top;align=center;shape=mxgraph.floorplan.office_chair;shadow=0;" vertex="1" parent="1">
          <mxGeometry x="2790" y="1290" width="40" height="43" as="geometry" />
        </mxCell>
        <mxCell id="MjTKoMQRRMAkkwBpksA8-87" value="" style="verticalLabelPosition=bottom;html=1;verticalAlign=top;align=center;shape=mxgraph.floorplan.office_chair;shadow=0;direction=west;" vertex="1" parent="1">
          <mxGeometry x="2790" y="1387" width="40" height="43" as="geometry" />
        </mxCell>
        <mxCell id="MjTKoMQRRMAkkwBpksA8-88" value="" style="verticalLabelPosition=bottom;html=1;verticalAlign=top;align=center;shape=mxgraph.floorplan.office_chair;shadow=0;" vertex="1" parent="1">
          <mxGeometry x="2850" y="1290" width="40" height="43" as="geometry" />
        </mxCell>
        <mxCell id="MjTKoMQRRMAkkwBpksA8-89" value="" style="verticalLabelPosition=bottom;html=1;verticalAlign=top;align=center;shape=mxgraph.floorplan.office_chair;shadow=0;direction=west;" vertex="1" parent="1">
          <mxGeometry x="2850" y="1387" width="40" height="43" as="geometry" />
        </mxCell>
        <mxCell id="MjTKoMQRRMAkkwBpksA8-90" value="" style="verticalLabelPosition=bottom;html=1;verticalAlign=top;align=center;shape=mxgraph.floorplan.office_chair;shadow=0;" vertex="1" parent="1">
          <mxGeometry x="2910" y="1290" width="40" height="43" as="geometry" />
        </mxCell>
        <mxCell id="MjTKoMQRRMAkkwBpksA8-91" value="" style="verticalLabelPosition=bottom;html=1;verticalAlign=top;align=center;shape=mxgraph.floorplan.office_chair;shadow=0;direction=west;" vertex="1" parent="1">
          <mxGeometry x="2910" y="1387" width="40" height="43" as="geometry" />
        </mxCell>
        <mxCell id="MjTKoMQRRMAkkwBpksA8-92" value="" style="verticalLabelPosition=bottom;html=1;verticalAlign=top;align=center;shape=mxgraph.floorplan.office_chair;shadow=0;" vertex="1" parent="1">
          <mxGeometry x="2970" y="1290" width="40" height="43" as="geometry" />
        </mxCell>
        <mxCell id="MjTKoMQRRMAkkwBpksA8-93" value="" style="verticalLabelPosition=bottom;html=1;verticalAlign=top;align=center;shape=mxgraph.floorplan.office_chair;shadow=0;direction=west;" vertex="1" parent="1">
          <mxGeometry x="2970" y="1387" width="40" height="43" as="geometry" />
        </mxCell>
        <mxCell id="MjTKoMQRRMAkkwBpksA8-94" value="" style="verticalLabelPosition=bottom;html=1;verticalAlign=top;align=center;shape=mxgraph.floorplan.office_chair;shadow=0;" vertex="1" parent="1">
          <mxGeometry x="3030" y="1290" width="40" height="43" as="geometry" />
        </mxCell>
        <mxCell id="MjTKoMQRRMAkkwBpksA8-95" value="" style="verticalLabelPosition=bottom;html=1;verticalAlign=top;align=center;shape=mxgraph.floorplan.office_chair;shadow=0;direction=west;" vertex="1" parent="1">
          <mxGeometry x="3030" y="1387" width="40" height="43" as="geometry" />
        </mxCell>
        <mxCell id="MjTKoMQRRMAkkwBpksA8-96" value="" style="verticalLabelPosition=bottom;html=1;verticalAlign=top;align=center;shape=mxgraph.floorplan.office_chair;shadow=0;" vertex="1" parent="1">
          <mxGeometry x="3090" y="1290" width="40" height="43" as="geometry" />
        </mxCell>
        <mxCell id="MjTKoMQRRMAkkwBpksA8-97" value="" style="verticalLabelPosition=bottom;html=1;verticalAlign=top;align=center;shape=mxgraph.floorplan.office_chair;shadow=0;direction=west;" vertex="1" parent="1">
          <mxGeometry x="3090" y="1387" width="40" height="43" as="geometry" />
        </mxCell>
        <mxCell id="MjTKoMQRRMAkkwBpksA8-98" value="" style="verticalLabelPosition=bottom;html=1;verticalAlign=top;align=center;shape=mxgraph.floorplan.office_chair;shadow=0;" vertex="1" parent="1">
          <mxGeometry x="3150" y="1290" width="40" height="43" as="geometry" />
        </mxCell>
        <mxCell id="MjTKoMQRRMAkkwBpksA8-99" value="" style="verticalLabelPosition=bottom;html=1;verticalAlign=top;align=center;shape=mxgraph.floorplan.office_chair;shadow=0;direction=west;" vertex="1" parent="1">
          <mxGeometry x="3150" y="1387" width="40" height="43" as="geometry" />
        </mxCell>
        <mxCell id="MjTKoMQRRMAkkwBpksA8-100" value="" style="shape=ellipse;shadow=0;" vertex="1" parent="1">
          <mxGeometry x="2700" y="1310" width="520" height="100" as="geometry" />
        </mxCell>
        <mxCell id="MjTKoMQRRMAkkwBpksA8-109" value="" style="verticalLabelPosition=bottom;html=1;verticalAlign=top;align=center;shape=mxgraph.floorplan.office_chair;shadow=0;" vertex="1" parent="1">
          <mxGeometry x="2260" y="1432.5" width="40" height="43" as="geometry" />
        </mxCell>
        <mxCell id="MjTKoMQRRMAkkwBpksA8-111" value="" style="verticalLabelPosition=bottom;html=1;verticalAlign=top;align=center;shape=mxgraph.floorplan.office_chair;shadow=0;" vertex="1" parent="1">
          <mxGeometry x="2010" y="1427" width="40" height="43" as="geometry" />
        </mxCell>
        <mxCell id="MjTKoMQRRMAkkwBpksA8-113" value="" style="verticalLabelPosition=bottom;html=1;verticalAlign=top;align=center;shape=mxgraph.floorplan.office_chair;shadow=0;" vertex="1" parent="1">
          <mxGeometry x="1880" y="1430" width="40" height="43" as="geometry" />
        </mxCell>
        <mxCell id="MjTKoMQRRMAkkwBpksA8-115" value="" style="shape=rect;shadow=0;" vertex="1" parent="1">
          <mxGeometry x="1800" y="1470" width="560" height="77" as="geometry" />
        </mxCell>
        <mxCell id="MjTKoMQRRMAkkwBpksA8-116" value="" style="verticalLabelPosition=bottom;html=1;verticalAlign=top;align=center;shape=mxgraph.floorplan.office_chair;shadow=0;" vertex="1" parent="1">
          <mxGeometry x="1510" y="1218" width="40" height="43" as="geometry" />
        </mxCell>
        <mxCell id="MjTKoMQRRMAkkwBpksA8-117" value="" style="verticalLabelPosition=bottom;html=1;verticalAlign=top;align=center;shape=mxgraph.floorplan.office_chair;shadow=0;direction=west;" vertex="1" parent="1">
          <mxGeometry x="1510" y="1261" width="40" height="85" as="geometry" />
        </mxCell>
        <mxCell id="MjTKoMQRRMAkkwBpksA8-120" value="" style="verticalLabelPosition=bottom;html=1;verticalAlign=top;align=center;shape=mxgraph.floorplan.office_chair;shadow=0;" vertex="1" parent="1">
          <mxGeometry x="1390" y="1213" width="40" height="43" as="geometry" />
        </mxCell>
        <mxCell id="MjTKoMQRRMAkkwBpksA8-121" value="" style="verticalLabelPosition=bottom;html=1;verticalAlign=top;align=center;shape=mxgraph.floorplan.office_chair;shadow=0;direction=west;" vertex="1" parent="1">
          <mxGeometry x="1390" y="1256" width="40" height="85" as="geometry" />
        </mxCell>
        <mxCell id="MjTKoMQRRMAkkwBpksA8-122" value="" style="shape=rect;shadow=0;" vertex="1" parent="1">
          <mxGeometry x="1290" y="1238" width="370" height="77" as="geometry" />
        </mxCell>
        <mxCell id="MjTKoMQRRMAkkwBpksA8-127" value="" style="verticalLabelPosition=bottom;html=1;verticalAlign=top;align=center;shape=mxgraph.floorplan.office_chair;shadow=0;" vertex="1" parent="1">
          <mxGeometry x="1515" y="1437.5" width="40" height="43" as="geometry" />
        </mxCell>
        <mxCell id="MjTKoMQRRMAkkwBpksA8-129" value="" style="verticalLabelPosition=bottom;html=1;verticalAlign=top;align=center;shape=mxgraph.floorplan.office_chair;shadow=0;" vertex="1" parent="1">
          <mxGeometry x="1395" y="1432.5" width="40" height="43" as="geometry" />
        </mxCell>
        <mxCell id="MjTKoMQRRMAkkwBpksA8-131" value="" style="shape=rect;shadow=0;" vertex="1" parent="1">
          <mxGeometry x="1290" y="1470" width="370" height="77" as="geometry" />
        </mxCell>
        <mxCell id="MjTKoMQRRMAkkwBpksA8-132" value="" style="verticalLabelPosition=bottom;html=1;verticalAlign=top;align=center;shape=mxgraph.floorplan.doorDouble;aspect=fixed;rotation=90;" vertex="1" parent="1">
          <mxGeometry x="2250" y="502" width="160" height="85" as="geometry" />
        </mxCell>
        <mxCell id="MjTKoMQRRMAkkwBpksA8-56" value="" style="verticalLabelPosition=bottom;html=1;verticalAlign=top;align=center;shape=mxgraph.floorplan.office_chair;shadow=0;direction=west;" vertex="1" parent="1">
          <mxGeometry x="2250" y="690" width="40" height="85" as="geometry" />
        </mxCell>
        <mxCell id="MjTKoMQRRMAkkwBpksA8-58" value="" style="verticalLabelPosition=bottom;html=1;verticalAlign=top;align=center;shape=mxgraph.floorplan.office_chair;shadow=0;direction=west;" vertex="1" parent="1">
          <mxGeometry x="2050" y="690" width="40" height="85" as="geometry" />
        </mxCell>
        <mxCell id="MjTKoMQRRMAkkwBpksA8-60" value="" style="verticalLabelPosition=bottom;html=1;verticalAlign=top;align=center;shape=mxgraph.floorplan.office_chair;shadow=0;direction=west;" vertex="1" parent="1">
          <mxGeometry x="1910" y="690" width="40" height="85" as="geometry" />
        </mxCell>
        <mxCell id="MjTKoMQRRMAkkwBpksA8-61" value="" style="shape=rect;shadow=0;" vertex="1" parent="1">
          <mxGeometry x="1811" y="670" width="560" height="60" as="geometry" />
        </mxCell>
        <mxCell id="MjTKoMQRRMAkkwBpksA8-135" value="" style="verticalLabelPosition=bottom;html=1;verticalAlign=top;align=center;shape=mxgraph.floorplan.office_chair;shadow=0;" vertex="1" parent="1">
          <mxGeometry x="2139" y="1204" width="40" height="43" as="geometry" />
        </mxCell>
        <mxCell id="MjTKoMQRRMAkkwBpksA8-136" value="" style="verticalLabelPosition=bottom;html=1;verticalAlign=top;align=center;shape=mxgraph.floorplan.office_chair;shadow=0;direction=west;" vertex="1" parent="1">
          <mxGeometry x="2139" y="1247" width="40" height="85" as="geometry" />
        </mxCell>
        <mxCell id="MjTKoMQRRMAkkwBpksA8-137" value="" style="verticalLabelPosition=bottom;html=1;verticalAlign=top;align=center;shape=mxgraph.floorplan.office_chair;shadow=0;" vertex="1" parent="1">
          <mxGeometry x="2130" y="1427" width="40" height="43" as="geometry" />
        </mxCell>
        <mxCell id="MjTKoMQRRMAkkwBpksA8-81" value="" style="shape=rect;shadow=0;" vertex="1" parent="1">
          <mxGeometry x="1910" y="1232" width="460" height="77" as="geometry" />
        </mxCell>
        <mxCell id="MjTKoMQRRMAkkwBpksA8-140" value="" style="rounded=0;whiteSpace=wrap;html=1;fontSize=40;fillColor=#fff2cc;strokeColor=#d6b656;" vertex="1" parent="1">
          <mxGeometry x="1820" y="360" width="550" height="100" as="geometry" />
        </mxCell>
        <mxCell id="MjTKoMQRRMAkkwBpksA8-141" value="" style="verticalLabelPosition=bottom;html=1;verticalAlign=top;align=center;shape=mxgraph.floorplan.doorDouble;aspect=fixed;fontSize=40;fontColor=#33FF33;" vertex="1" parent="1">
          <mxGeometry x="1330" y="60" width="160" height="85" as="geometry" />
        </mxCell>
        <mxCell id="MjTKoMQRRMAkkwBpksA8-142" value="" style="verticalLabelPosition=bottom;html=1;verticalAlign=top;align=center;shape=mxgraph.floorplan.dresser;fontSize=40;fontColor=#33FF33;" vertex="1" parent="1">
          <mxGeometry x="1610" y="70" width="100" height="65" as="geometry" />
        </mxCell>
        <mxCell id="MjTKoMQRRMAkkwBpksA8-143" value="" style="verticalLabelPosition=bottom;html=1;verticalAlign=top;align=center;shape=mxgraph.floorplan.couch;fontSize=40;fontColor=#33FF33;rotation=90;" vertex="1" parent="1">
          <mxGeometry x="2250" y="170" width="150" height="80" as="geometry" />
        </mxCell>
        <mxCell id="MjTKoMQRRMAkkwBpksA8-145" value="茶室" style="text;html=1;strokeColor=none;fillColor=none;align=center;verticalAlign=middle;whiteSpace=wrap;rounded=0;fontSize=40;fontColor=#007FFF;" vertex="1" parent="1">
          <mxGeometry x="1392.5" y="978" width="155" height="20" as="geometry" />
        </mxCell>
        <mxCell id="MjTKoMQRRMAkkwBpksA8-146" value="会客室" style="text;html=1;strokeColor=none;fillColor=none;align=center;verticalAlign=middle;whiteSpace=wrap;rounded=0;fontSize=40;fontColor=#007FFF;" vertex="1" parent="1">
          <mxGeometry x="1385" y="700" width="155" height="20" as="geometry" />
        </mxCell>
        <mxCell id="MjTKoMQRRMAkkwBpksA8-147" value="" style="verticalLabelPosition=bottom;html=1;verticalAlign=top;align=center;shape=mxgraph.floorplan.wall;fillColor=#000000;fontSize=40;fontColor=#33FF33;" vertex="1" parent="1">
          <mxGeometry x="2370" y="1115" width="370" height="10" as="geometry" />
        </mxCell>
        <mxCell id="MjTKoMQRRMAkkwBpksA8-148" value="" style="verticalLabelPosition=bottom;html=1;verticalAlign=top;align=center;shape=mxgraph.floorplan.wall;fillColor=#000000;fontSize=40;fontColor=#33FF33;" vertex="1" parent="1">
          <mxGeometry x="2900" y="1115" width="570" height="10" as="geometry" />
        </mxCell>
        <mxCell id="MjTKoMQRRMAkkwBpksA8-151" value="大会议室" style="text;html=1;strokeColor=none;fillColor=none;align=center;verticalAlign=middle;whiteSpace=wrap;rounded=0;fontSize=40;fontColor=#007FFF;" vertex="1" parent="1">
          <mxGeometry x="2840" y="1350" width="260" height="20" as="geometry" />
        </mxCell>
        <mxCell id="MjTKoMQRRMAkkwBpksA8-152" value="销售一部" style="text;html=1;strokeColor=none;fillColor=none;align=center;verticalAlign=middle;whiteSpace=wrap;rounded=0;fontSize=40;fontColor=#007FFF;" vertex="1" parent="1">
          <mxGeometry x="1970" y="810" width="175" height="20" as="geometry" />
        </mxCell>
        <mxCell id="MjTKoMQRRMAkkwBpksA8-153" value="销售二部" style="text;html=1;strokeColor=none;fillColor=none;align=center;verticalAlign=middle;whiteSpace=wrap;rounded=0;fontSize=40;fontColor=#007FFF;" vertex="1" parent="1">
          <mxGeometry x="2002.5" y="1370" width="175" height="20" as="geometry" />
        </mxCell>
        <mxCell id="MjTKoMQRRMAkkwBpksA8-154" value="网络推广部" style="text;html=1;strokeColor=none;fillColor=none;align=center;verticalAlign=middle;whiteSpace=wrap;rounded=0;fontSize=40;fontColor=#007FFF;" vertex="1" parent="1">
          <mxGeometry x="1345" y="1380" width="267.5" height="20" as="geometry" />
        </mxCell>
        <mxCell id="MjTKoMQRRMAkkwBpksA8-163" value="" style="verticalLabelPosition=bottom;html=1;verticalAlign=top;align=center;shape=mxgraph.floorplan.wall;fillColor=#000000;fontSize=40;fontColor=#007FFF;" vertex="1" parent="1">
          <mxGeometry x="2371" y="350" width="339" height="10" as="geometry" />
        </mxCell>
        <mxCell id="MjTKoMQRRMAkkwBpksA8-164" value="" style="verticalLabelPosition=bottom;html=1;verticalAlign=top;align=center;shape=mxgraph.floorplan.wall;fillColor=#000000;direction=south;fontSize=40;fontColor=#007FFF;" vertex="1" parent="1">
          <mxGeometry x="2710" y="60" width="10" height="200" as="geometry" />
        </mxCell>
        <mxCell id="MjTKoMQRRMAkkwBpksA8-165" value="" style="verticalLabelPosition=bottom;html=1;verticalAlign=top;align=center;shape=mxgraph.floorplan.doorRight;aspect=fixed;fontSize=40;fontColor=#007FFF;rotation=90;" vertex="1" parent="1">
          <mxGeometry x="2630" y="265" width="80" height="85" as="geometry" />
        </mxCell>
        <mxCell id="MjTKoMQRRMAkkwBpksA8-166" value="" style="verticalLabelPosition=bottom;html=1;verticalAlign=top;align=center;shape=mxgraph.floorplan.chair;shadow=0;fontSize=40;fontColor=#007FFF;" vertex="1" parent="1">
          <mxGeometry x="2491" y="135" width="40" height="52" as="geometry" />
        </mxCell>
        <mxCell id="MjTKoMQRRMAkkwBpksA8-167" value="" style="verticalLabelPosition=bottom;html=1;verticalAlign=top;align=center;shape=mxgraph.floorplan.chair;shadow=0;rotation=180;fontSize=40;fontColor=#007FFF;" vertex="1" parent="1">
          <mxGeometry x="2491" y="203" width="40" height="52" as="geometry" />
        </mxCell>
        <mxCell id="MjTKoMQRRMAkkwBpksA8-168" value="" style="shape=rect;shadow=0;fontSize=40;fontColor=#007FFF;" vertex="1" parent="1">
          <mxGeometry x="2420" y="155" width="170" height="80" as="geometry" />
        </mxCell>
        <mxCell id="MjTKoMQRRMAkkwBpksA8-169" value="财务部" style="text;html=1;strokeColor=none;fillColor=none;align=center;verticalAlign=middle;whiteSpace=wrap;rounded=0;fontSize=40;fontColor=#007FFF;" vertex="1" parent="1">
          <mxGeometry x="2420" y="290" width="205" height="20" as="geometry" />
        </mxCell>
        <mxCell id="MjTKoMQRRMAkkwBpksA8-176" value="" style="group" vertex="1" connectable="0" parent="1">
          <mxGeometry x="2900" y="830" width="560" height="155" as="geometry" />
        </mxCell>
        <mxCell id="MjTKoMQRRMAkkwBpksA8-177" value="" style="verticalLabelPosition=bottom;html=1;verticalAlign=top;align=center;shape=mxgraph.floorplan.office_chair;shadow=0;" vertex="1" parent="MjTKoMQRRMAkkwBpksA8-176">
          <mxGeometry x="440" y="5" width="40" height="43" as="geometry" />
        </mxCell>
        <mxCell id="MjTKoMQRRMAkkwBpksA8-178" value="" style="verticalLabelPosition=bottom;html=1;verticalAlign=top;align=center;shape=mxgraph.floorplan.office_chair;shadow=0;direction=west;" vertex="1" parent="MjTKoMQRRMAkkwBpksA8-176">
          <mxGeometry x="440" y="70" width="40" height="85" as="geometry" />
        </mxCell>
        <mxCell id="MjTKoMQRRMAkkwBpksA8-179" value="" style="verticalLabelPosition=bottom;html=1;verticalAlign=top;align=center;shape=mxgraph.floorplan.office_chair;shadow=0;" vertex="1" parent="MjTKoMQRRMAkkwBpksA8-176">
          <mxGeometry x="240" width="40" height="43" as="geometry" />
        </mxCell>
        <mxCell id="MjTKoMQRRMAkkwBpksA8-180" value="" style="verticalLabelPosition=bottom;html=1;verticalAlign=top;align=center;shape=mxgraph.floorplan.office_chair;shadow=0;direction=west;" vertex="1" parent="MjTKoMQRRMAkkwBpksA8-176">
          <mxGeometry x="240" y="65" width="40" height="85" as="geometry" />
        </mxCell>
        <mxCell id="MjTKoMQRRMAkkwBpksA8-181" value="" style="verticalLabelPosition=bottom;html=1;verticalAlign=top;align=center;shape=mxgraph.floorplan.office_chair;shadow=0;" vertex="1" parent="MjTKoMQRRMAkkwBpksA8-176">
          <mxGeometry x="100" width="40" height="43" as="geometry" />
        </mxCell>
        <mxCell id="MjTKoMQRRMAkkwBpksA8-182" value="" style="verticalLabelPosition=bottom;html=1;verticalAlign=top;align=center;shape=mxgraph.floorplan.office_chair;shadow=0;direction=west;" vertex="1" parent="MjTKoMQRRMAkkwBpksA8-176">
          <mxGeometry x="100" y="66" width="40" height="85" as="geometry" />
        </mxCell>
        <mxCell id="MjTKoMQRRMAkkwBpksA8-183" value="" style="shape=rect;shadow=0;" vertex="1" parent="MjTKoMQRRMAkkwBpksA8-176">
          <mxGeometry y="25" width="560" height="100" as="geometry" />
        </mxCell>
        <mxCell id="MjTKoMQRRMAkkwBpksA8-184" value="" style="group" vertex="1" connectable="0" parent="1">
          <mxGeometry x="2900" y="590" width="560" height="155" as="geometry" />
        </mxCell>
        <mxCell id="MjTKoMQRRMAkkwBpksA8-185" value="" style="verticalLabelPosition=bottom;html=1;verticalAlign=top;align=center;shape=mxgraph.floorplan.office_chair;shadow=0;" vertex="1" parent="MjTKoMQRRMAkkwBpksA8-184">
          <mxGeometry x="440" y="5" width="40" height="43" as="geometry" />
        </mxCell>
        <mxCell id="MjTKoMQRRMAkkwBpksA8-186" value="" style="verticalLabelPosition=bottom;html=1;verticalAlign=top;align=center;shape=mxgraph.floorplan.office_chair;shadow=0;direction=west;" vertex="1" parent="MjTKoMQRRMAkkwBpksA8-184">
          <mxGeometry x="440" y="70" width="40" height="85" as="geometry" />
        </mxCell>
        <mxCell id="MjTKoMQRRMAkkwBpksA8-187" value="" style="verticalLabelPosition=bottom;html=1;verticalAlign=top;align=center;shape=mxgraph.floorplan.office_chair;shadow=0;" vertex="1" parent="MjTKoMQRRMAkkwBpksA8-184">
          <mxGeometry x="240" width="40" height="43" as="geometry" />
        </mxCell>
        <mxCell id="MjTKoMQRRMAkkwBpksA8-188" value="" style="verticalLabelPosition=bottom;html=1;verticalAlign=top;align=center;shape=mxgraph.floorplan.office_chair;shadow=0;direction=west;" vertex="1" parent="MjTKoMQRRMAkkwBpksA8-184">
          <mxGeometry x="240" y="65" width="40" height="85" as="geometry" />
        </mxCell>
        <mxCell id="MjTKoMQRRMAkkwBpksA8-189" value="" style="verticalLabelPosition=bottom;html=1;verticalAlign=top;align=center;shape=mxgraph.floorplan.office_chair;shadow=0;" vertex="1" parent="MjTKoMQRRMAkkwBpksA8-184">
          <mxGeometry x="100" width="40" height="43" as="geometry" />
        </mxCell>
        <mxCell id="MjTKoMQRRMAkkwBpksA8-190" value="" style="verticalLabelPosition=bottom;html=1;verticalAlign=top;align=center;shape=mxgraph.floorplan.office_chair;shadow=0;direction=west;" vertex="1" parent="MjTKoMQRRMAkkwBpksA8-184">
          <mxGeometry x="100" y="66" width="40" height="85" as="geometry" />
        </mxCell>
        <mxCell id="MjTKoMQRRMAkkwBpksA8-191" value="" style="shape=rect;shadow=0;" vertex="1" parent="MjTKoMQRRMAkkwBpksA8-184">
          <mxGeometry y="25" width="560" height="100" as="geometry" />
        </mxCell>
        <mxCell id="MjTKoMQRRMAkkwBpksA8-192" value="" style="group" vertex="1" connectable="0" parent="1">
          <mxGeometry x="2900" y="330" width="560" height="155" as="geometry" />
        </mxCell>
        <mxCell id="MjTKoMQRRMAkkwBpksA8-193" value="" style="verticalLabelPosition=bottom;html=1;verticalAlign=top;align=center;shape=mxgraph.floorplan.office_chair;shadow=0;" vertex="1" parent="MjTKoMQRRMAkkwBpksA8-192">
          <mxGeometry x="440" y="5" width="40" height="43" as="geometry" />
        </mxCell>
        <mxCell id="MjTKoMQRRMAkkwBpksA8-194" value="" style="verticalLabelPosition=bottom;html=1;verticalAlign=top;align=center;shape=mxgraph.floorplan.office_chair;shadow=0;direction=west;" vertex="1" parent="MjTKoMQRRMAkkwBpksA8-192">
          <mxGeometry x="440" y="70" width="40" height="85" as="geometry" />
        </mxCell>
        <mxCell id="MjTKoMQRRMAkkwBpksA8-195" value="" style="verticalLabelPosition=bottom;html=1;verticalAlign=top;align=center;shape=mxgraph.floorplan.office_chair;shadow=0;" vertex="1" parent="MjTKoMQRRMAkkwBpksA8-192">
          <mxGeometry x="240" width="40" height="43" as="geometry" />
        </mxCell>
        <mxCell id="MjTKoMQRRMAkkwBpksA8-196" value="" style="verticalLabelPosition=bottom;html=1;verticalAlign=top;align=center;shape=mxgraph.floorplan.office_chair;shadow=0;direction=west;" vertex="1" parent="MjTKoMQRRMAkkwBpksA8-192">
          <mxGeometry x="240" y="65" width="40" height="85" as="geometry" />
        </mxCell>
        <mxCell id="MjTKoMQRRMAkkwBpksA8-197" value="" style="verticalLabelPosition=bottom;html=1;verticalAlign=top;align=center;shape=mxgraph.floorplan.office_chair;shadow=0;" vertex="1" parent="MjTKoMQRRMAkkwBpksA8-192">
          <mxGeometry x="100" width="40" height="43" as="geometry" />
        </mxCell>
        <mxCell id="MjTKoMQRRMAkkwBpksA8-198" value="" style="verticalLabelPosition=bottom;html=1;verticalAlign=top;align=center;shape=mxgraph.floorplan.office_chair;shadow=0;direction=west;" vertex="1" parent="MjTKoMQRRMAkkwBpksA8-192">
          <mxGeometry x="100" y="66" width="40" height="85" as="geometry" />
        </mxCell>
        <mxCell id="MjTKoMQRRMAkkwBpksA8-199" value="" style="shape=rect;shadow=0;" vertex="1" parent="MjTKoMQRRMAkkwBpksA8-192">
          <mxGeometry y="25" width="560" height="100" as="geometry" />
        </mxCell>
        <mxCell id="MjTKoMQRRMAkkwBpksA8-200" value="" style="group" vertex="1" connectable="0" parent="1">
          <mxGeometry x="2900" y="40" width="560" height="155" as="geometry" />
        </mxCell>
        <mxCell id="MjTKoMQRRMAkkwBpksA8-202" value="" style="verticalLabelPosition=bottom;html=1;verticalAlign=top;align=center;shape=mxgraph.floorplan.office_chair;shadow=0;direction=west;" vertex="1" parent="MjTKoMQRRMAkkwBpksA8-200">
          <mxGeometry x="440" y="70" width="40" height="85" as="geometry" />
        </mxCell>
        <mxCell id="MjTKoMQRRMAkkwBpksA8-204" value="" style="verticalLabelPosition=bottom;html=1;verticalAlign=top;align=center;shape=mxgraph.floorplan.office_chair;shadow=0;direction=west;" vertex="1" parent="MjTKoMQRRMAkkwBpksA8-200">
          <mxGeometry x="240" y="65" width="40" height="85" as="geometry" />
        </mxCell>
        <mxCell id="MjTKoMQRRMAkkwBpksA8-206" value="" style="verticalLabelPosition=bottom;html=1;verticalAlign=top;align=center;shape=mxgraph.floorplan.office_chair;shadow=0;direction=west;" vertex="1" parent="MjTKoMQRRMAkkwBpksA8-200">
          <mxGeometry x="100" y="66" width="40" height="85" as="geometry" />
        </mxCell>
        <mxCell id="MjTKoMQRRMAkkwBpksA8-207" value="" style="shape=rect;shadow=0;" vertex="1" parent="MjTKoMQRRMAkkwBpksA8-200">
          <mxGeometry y="25" width="560" height="100" as="geometry" />
        </mxCell>
        <mxCell id="MjTKoMQRRMAkkwBpksA8-208" value="" style="verticalLabelPosition=bottom;html=1;verticalAlign=top;align=center;shape=mxgraph.floorplan.wall;fillColor=#000000;fontSize=40;fontColor=#007FFF;" vertex="1" parent="1">
          <mxGeometry x="2391" y="857.5" width="319" height="10" as="geometry" />
        </mxCell>
        <mxCell id="MjTKoMQRRMAkkwBpksA8-209" value="" style="verticalLabelPosition=bottom;html=1;verticalAlign=top;align=center;shape=mxgraph.floorplan.wall;fillColor=#000000;direction=south;fontSize=40;fontColor=#007FFF;" vertex="1" parent="1">
          <mxGeometry x="2700" y="862" width="10" height="178" as="geometry" />
        </mxCell>
        <mxCell id="MjTKoMQRRMAkkwBpksA8-211" value="" style="verticalLabelPosition=bottom;html=1;verticalAlign=top;align=center;shape=mxgraph.floorplan.doorRight;aspect=fixed;fontSize=40;fontColor=#007FFF;rotation=90;" vertex="1" parent="1">
          <mxGeometry x="2630" y="1035" width="80" height="85" as="geometry" />
        </mxCell>
        <mxCell id="MjTKoMQRRMAkkwBpksA8-212" value="小会议室" style="text;html=1;strokeColor=none;fillColor=none;align=center;verticalAlign=middle;whiteSpace=wrap;rounded=0;fontSize=40;fontColor=#007FFF;" vertex="1" parent="1">
          <mxGeometry x="2448" y="978" width="205" height="20" as="geometry" />
        </mxCell>
        <mxCell id="MjTKoMQRRMAkkwBpksA8-213" value="" style="verticalLabelPosition=bottom;html=1;verticalAlign=top;align=center;shape=mxgraph.floorplan.chair;shadow=0;fontSize=40;fontColor=#007FFF;" vertex="1" parent="1">
          <mxGeometry x="2541" y="680" width="40" height="52" as="geometry" />
        </mxCell>
        <mxCell id="MjTKoMQRRMAkkwBpksA8-214" value="" style="verticalLabelPosition=bottom;html=1;verticalAlign=top;align=center;shape=mxgraph.floorplan.chair;shadow=0;direction=west;fontSize=40;fontColor=#007FFF;" vertex="1" parent="1">
          <mxGeometry x="2541" y="768" width="40" height="52" as="geometry" />
        </mxCell>
        <mxCell id="MjTKoMQRRMAkkwBpksA8-215" value="" style="verticalLabelPosition=bottom;html=1;verticalAlign=top;align=center;shape=mxgraph.floorplan.chair;shadow=0;direction=north;fontSize=40;fontColor=#007FFF;" vertex="1" parent="1">
          <mxGeometry x="2491" y="730" width="52" height="40" as="geometry" />
        </mxCell>
        <mxCell id="MjTKoMQRRMAkkwBpksA8-216" value="" style="verticalLabelPosition=bottom;html=1;verticalAlign=top;align=center;shape=mxgraph.floorplan.chair;shadow=0;direction=south;fontSize=40;fontColor=#007FFF;" vertex="1" parent="1">
          <mxGeometry x="2579" y="730" width="52" height="40" as="geometry" />
        </mxCell>
        <mxCell id="MjTKoMQRRMAkkwBpksA8-217" value="" style="shape=ellipse;shadow=0;fontSize=40;fontColor=#007FFF;" vertex="1" parent="1">
          <mxGeometry x="2511" y="700" width="100" height="100" as="geometry" />
        </mxCell>
        <mxCell id="MjTKoMQRRMAkkwBpksA8-218" value="" style="verticalLabelPosition=bottom;html=1;verticalAlign=top;align=center;shape=mxgraph.floorplan.couch;fontSize=40;fontColor=#33FF33;rotation=90;" vertex="1" parent="1">
          <mxGeometry x="2260" y="180" width="150" height="80" as="geometry" />
        </mxCell>
        <mxCell id="MjTKoMQRRMAkkwBpksA8-219" value="" style="verticalLabelPosition=bottom;html=1;verticalAlign=top;align=center;shape=mxgraph.floorplan.desk_corner_2;fontSize=40;fontColor=#007FFF;rotation=-90;" vertex="1" parent="1">
          <mxGeometry x="2360" y="725" width="150" height="120" as="geometry" />
        </mxCell>
        <mxCell id="MjTKoMQRRMAkkwBpksA8-220" value="茶水间" style="text;html=1;strokeColor=none;fillColor=none;align=center;verticalAlign=middle;whiteSpace=wrap;rounded=0;fontSize=40;fontColor=#007FFF;" vertex="1" parent="1">
          <mxGeometry x="2380" y="775" width="181" height="20" as="geometry" />
        </mxCell>
        <mxCell id="MjTKoMQRRMAkkwBpksA8-221" value="技术部" style="text;html=1;strokeColor=none;fillColor=none;align=center;verticalAlign=middle;whiteSpace=wrap;rounded=0;fontSize=40;fontColor=#007FFF;" vertex="1" parent="1">
          <mxGeometry x="3080" y="525" width="260" height="20" as="geometry" />
        </mxCell>
        <mxCell id="MjTKoMQRRMAkkwBpksA8-222" value="" style="verticalLabelPosition=bottom;html=1;verticalAlign=top;align=center;shape=mxgraph.floorplan.doorDouble;aspect=fixed;fontSize=40;fontColor=#007FFF;" vertex="1" parent="1">
          <mxGeometry x="2740" y="1119" width="160" height="85" as="geometry" />
        </mxCell>
      </root>
    </mxGraphModel>
  </diagram>
</mxfile>
